<mxfile host="app.diagrams.net" agent="Mozilla/5.0 (Macintosh; Intel Mac OS X 10_15_7) AppleWebKit/537.36 (KHTML, like Gecko) Chrome/126.0.0.0 Whale/3.27.254.15 Safari/537.36" version="25.0.1">
  <diagram name="페이지-1" id="wIO3oZFtxyOlvSoCHIZe">
    <mxGraphModel dx="1693" dy="995" grid="1" gridSize="10" guides="1" tooltips="1" connect="1" arrows="1" fold="1" page="1" pageScale="1" pageWidth="1169" pageHeight="827" math="0" shadow="0">
      <root>
        <mxCell id="0" />
        <mxCell id="1" parent="0" />
        <mxCell id="VQGaRaIWbksg6lyRUQ71-1" value="" style="endArrow=classic;html=1;rounded=0;" parent="1" edge="1">
          <mxGeometry width="50" height="50" relative="1" as="geometry">
            <mxPoint x="40" y="680" as="sourcePoint" />
            <mxPoint x="40" y="280" as="targetPoint" />
          </mxGeometry>
        </mxCell>
        <mxCell id="VQGaRaIWbksg6lyRUQ71-2" value="" style="endArrow=classic;html=1;rounded=0;" parent="1" edge="1">
          <mxGeometry width="50" height="50" relative="1" as="geometry">
            <mxPoint x="40" y="680" as="sourcePoint" />
            <mxPoint x="440" y="680" as="targetPoint" />
          </mxGeometry>
        </mxCell>
        <mxCell id="VQGaRaIWbksg6lyRUQ71-4" value="" style="ellipse;whiteSpace=wrap;html=1;aspect=fixed;fillColor=#f8cecc;strokeColor=#b85450;" parent="1" vertex="1">
          <mxGeometry x="70" y="630" width="20" height="20" as="geometry" />
        </mxCell>
        <mxCell id="VQGaRaIWbksg6lyRUQ71-5" value="" style="ellipse;whiteSpace=wrap;html=1;aspect=fixed;fillColor=#f8cecc;strokeColor=#b85450;" parent="1" vertex="1">
          <mxGeometry x="90" y="570" width="20" height="20" as="geometry" />
        </mxCell>
        <mxCell id="VQGaRaIWbksg6lyRUQ71-6" value="" style="ellipse;whiteSpace=wrap;html=1;aspect=fixed;fillColor=#f8cecc;strokeColor=#b85450;" parent="1" vertex="1">
          <mxGeometry x="170" y="610" width="20" height="20" as="geometry" />
        </mxCell>
        <mxCell id="VQGaRaIWbksg6lyRUQ71-7" value="" style="ellipse;whiteSpace=wrap;html=1;aspect=fixed;fillColor=#f8cecc;strokeColor=#b85450;" parent="1" vertex="1">
          <mxGeometry x="50" y="510" width="20" height="20" as="geometry" />
        </mxCell>
        <mxCell id="VQGaRaIWbksg6lyRUQ71-8" value="" style="ellipse;whiteSpace=wrap;html=1;aspect=fixed;fillColor=#f8cecc;strokeColor=#b85450;" parent="1" vertex="1">
          <mxGeometry x="190" y="510" width="20" height="20" as="geometry" />
        </mxCell>
        <mxCell id="VQGaRaIWbksg6lyRUQ71-9" value="" style="ellipse;whiteSpace=wrap;html=1;aspect=fixed;fillColor=#f8cecc;strokeColor=#b85450;" parent="1" vertex="1">
          <mxGeometry x="130" y="470" width="20" height="20" as="geometry" />
        </mxCell>
        <mxCell id="VQGaRaIWbksg6lyRUQ71-10" value="" style="ellipse;whiteSpace=wrap;html=1;aspect=fixed;fillColor=#f8cecc;strokeColor=#b85450;" parent="1" vertex="1">
          <mxGeometry x="70" y="430" width="20" height="20" as="geometry" />
        </mxCell>
        <mxCell id="VQGaRaIWbksg6lyRUQ71-11" value="" style="ellipse;whiteSpace=wrap;html=1;aspect=fixed;fillColor=#f8cecc;strokeColor=#b85450;" parent="1" vertex="1">
          <mxGeometry x="170" y="450" width="20" height="20" as="geometry" />
        </mxCell>
        <mxCell id="VQGaRaIWbksg6lyRUQ71-12" value="" style="ellipse;whiteSpace=wrap;html=1;aspect=fixed;fillColor=#f8cecc;strokeColor=#b85450;" parent="1" vertex="1">
          <mxGeometry x="160" y="370" width="20" height="20" as="geometry" />
        </mxCell>
        <mxCell id="VQGaRaIWbksg6lyRUQ71-13" value="" style="ellipse;whiteSpace=wrap;html=1;aspect=fixed;fillColor=#f8cecc;strokeColor=#b85450;" parent="1" vertex="1">
          <mxGeometry x="80" y="350" width="20" height="20" as="geometry" />
        </mxCell>
        <mxCell id="VQGaRaIWbksg6lyRUQ71-14" value="" style="ellipse;whiteSpace=wrap;html=1;aspect=fixed;fillColor=#ffe6cc;strokeColor=#d79b00;" parent="1" vertex="1">
          <mxGeometry x="240" y="650" width="20" height="20" as="geometry" />
        </mxCell>
        <mxCell id="VQGaRaIWbksg6lyRUQ71-17" value="" style="ellipse;whiteSpace=wrap;html=1;aspect=fixed;fillColor=#ffe6cc;strokeColor=#d79b00;" parent="1" vertex="1">
          <mxGeometry x="250" y="580" width="20" height="20" as="geometry" />
        </mxCell>
        <mxCell id="VQGaRaIWbksg6lyRUQ71-18" value="" style="ellipse;whiteSpace=wrap;html=1;aspect=fixed;fillColor=#ffe6cc;strokeColor=#d79b00;" parent="1" vertex="1">
          <mxGeometry x="330" y="610" width="20" height="20" as="geometry" />
        </mxCell>
        <mxCell id="VQGaRaIWbksg6lyRUQ71-19" value="" style="ellipse;whiteSpace=wrap;html=1;aspect=fixed;fillColor=#ffe6cc;strokeColor=#d79b00;" parent="1" vertex="1">
          <mxGeometry x="390" y="560" width="20" height="20" as="geometry" />
        </mxCell>
        <mxCell id="VQGaRaIWbksg6lyRUQ71-20" value="" style="ellipse;whiteSpace=wrap;html=1;aspect=fixed;fillColor=#ffe6cc;strokeColor=#d79b00;" parent="1" vertex="1">
          <mxGeometry x="310" y="540" width="20" height="20" as="geometry" />
        </mxCell>
        <mxCell id="VQGaRaIWbksg6lyRUQ71-21" value="" style="ellipse;whiteSpace=wrap;html=1;aspect=fixed;fillColor=#ffe6cc;strokeColor=#d79b00;" parent="1" vertex="1">
          <mxGeometry x="370" y="500" width="20" height="20" as="geometry" />
        </mxCell>
        <mxCell id="VQGaRaIWbksg6lyRUQ71-22" value="" style="ellipse;whiteSpace=wrap;html=1;aspect=fixed;fillColor=#ffe6cc;strokeColor=#d79b00;" parent="1" vertex="1">
          <mxGeometry x="300" y="470" width="20" height="20" as="geometry" />
        </mxCell>
        <mxCell id="VQGaRaIWbksg6lyRUQ71-23" value="" style="ellipse;whiteSpace=wrap;html=1;aspect=fixed;fillColor=#ffe6cc;strokeColor=#d79b00;" parent="1" vertex="1">
          <mxGeometry x="310" y="403.5" width="20" height="20" as="geometry" />
        </mxCell>
        <mxCell id="VQGaRaIWbksg6lyRUQ71-24" value="" style="ellipse;whiteSpace=wrap;html=1;aspect=fixed;fillColor=#ffe6cc;strokeColor=#d79b00;" parent="1" vertex="1">
          <mxGeometry x="420" y="450" width="20" height="20" as="geometry" />
        </mxCell>
        <mxCell id="VQGaRaIWbksg6lyRUQ71-25" value="" style="ellipse;whiteSpace=wrap;html=1;aspect=fixed;fillColor=#ffe6cc;strokeColor=#d79b00;" parent="1" vertex="1">
          <mxGeometry x="410" y="360" width="20" height="20" as="geometry" />
        </mxCell>
        <mxCell id="VQGaRaIWbksg6lyRUQ71-26" value="&lt;font style=&quot;font-size: 15px;&quot;&gt;color&lt;/font&gt;" style="text;html=1;align=center;verticalAlign=middle;whiteSpace=wrap;rounded=0;" parent="1" vertex="1">
          <mxGeometry x="210" y="690" width="60" height="30" as="geometry" />
        </mxCell>
        <mxCell id="VQGaRaIWbksg6lyRUQ71-27" value="&lt;font style=&quot;font-size: 15px;&quot;&gt;size&lt;/font&gt;" style="text;html=1;align=center;verticalAlign=middle;whiteSpace=wrap;rounded=0;" parent="1" vertex="1">
          <mxGeometry x="-30" y="465" width="60" height="30" as="geometry" />
        </mxCell>
        <mxCell id="htLkQeSjRIPXUw32zDq0-1" value="" style="endArrow=none;html=1;rounded=0;strokeWidth=2;strokeColor=#97D077;" edge="1" parent="1">
          <mxGeometry width="50" height="50" relative="1" as="geometry">
            <mxPoint x="200" y="660" as="sourcePoint" />
            <mxPoint x="310" y="310" as="targetPoint" />
          </mxGeometry>
        </mxCell>
      </root>
    </mxGraphModel>
  </diagram>
</mxfile>
